<?xml version="1.0" encoding="utf-8"?>
<!-- Generator: Adobe Illustrator 23.0.2, SVG Export Plug-In . SVG Version: 6.00 Build 0)  -->
<svg version="1.1" xmlns="http://www.w3.org/2000/svg" xmlns:xlink="http://www.w3.org/1999/xlink" x="0px" y="0px"
	 viewBox="0 0 709.97 653.29" style="enable-background:new 0 0 709.97 653.29;" xml:space="preserve">
<style type="text/css">
	.st0{fill:#FFFFFF;}
	.st1{fill:#45D62F;}
	.st2{fill:none;stroke:#000000;stroke-width:2;stroke-linecap:round;stroke-linejoin:round;stroke-miterlimit:10;}
	.st3{fill:#FFFFFF;stroke:#000000;stroke-width:2;stroke-linecap:round;stroke-linejoin:round;stroke-miterlimit:10;}
	.st4{fill:#45D62F;stroke:#000000;stroke-width:2;stroke-linecap:round;stroke-linejoin:round;}
</style>
<path class="st0" d="M243.18,153.36c0,0-3.51,2.04-3.05,4.98c0.45,2.94,2.72,8.94,3.73,11.09s1.7,4.64,1.7,4.64l-1.7,29.76
	c0,0,23.99,36.32,32.36,38.02c8.37,1.7,14.14-14.48,14.14-14.48l-0.11-16.18c0,0,11.88-3.62,15.61-9.39s12.78-16.29,14.6-27.15
	c1.81-10.86,3.73-18.67,2.94-28.17c-0.79-9.5-3.73-21.61-18.78-23.87c-15.05-2.26-48.76,5.88-48.76,5.88L243.18,153.36z"/>
<path class="st1" d="M355,239.67c0,0-2.18-2.99-5.17-2.59c-2.99,0.41-6.94,1.77-8.84,4.22c-1.9,2.45-2.72,11.43-4.49,14.97
	c-1.77,3.54-4.08,11.57-4.08,11.57s-4.22,3.95-6.53,9.12c-2.31,5.17-4.76,9.39-4.76,9.39s-5.85-11.16-6.4-11.84
	c-0.54-0.68,0.14-14.29-2.45-22.86s-9.52-18.1-11.7-19.73s-5.44-3.13-5.44-3.13s-0.27-1.63-2.04-4.22s-3.13-3.67-3.13-3.67
	l-0.14,7.48l-11.02,9.52l-1.9-0.82l-32.93-34.02l0.82-13.2c0,0-4.76-0.95-6.8,1.09c-2.04,2.04-7.48,10.75-7.48,10.75
	s-34.02,23.68-44.09,31.3c-10.07,7.62-23.95,18.1-25.58,22.32s-16.93,87.85-16.93,87.85s-6.13,43.31-10.76,61.57
	c-4.62,18.27-10.87,41.62-10.87,41.62s42.09,15.72,86.49,21.74c44.4,6.01,80.47-4.86,80.47-4.86s12.49-83.48,14.11-94.81
	c1.62-11.33,4.39-30.06,4.39-30.06s13.64,8.56,20.12,10.41c6.47,1.85,16.42-11.1,18.73-14.8c2.31-3.7,12.49-14.57,17.11-27.29
	s-0.23-55.04-0.23-55.04L355,239.67z"/>
<g>
	<path class="st2" d="M309.41,338.92c3.54,3.07,16.6,9.53,20.44,10.14s21.06-18.6,25.82-29.82c4.76-11.22,8.3-55.64,7.53-61.64
		c-0.77-5.99-7.38-18.6-7.38-18.6s-5.69-3.84-8.76-2s-8.15,2.46-9.22,11.37c-1.08,8.92-5.23,19.52-5.23,19.52s-4,4.46-6.15,8.45
		c-2.15,4-5.53,10.76-5.53,10.76s-2.31-9.68-6.3-13.68"/>
	<circle class="st2" cx="309.83" cy="156.99" r="11.42"/>
	<circle class="st2" cx="275.17" cy="156.99" r="11.42"/>
	<line class="st2" x1="298.29" y1="154.64" x2="286.59" y2="154.64"/>
	<path class="st2" d="M263.91,153.26c-0.14-0.41-13.81-7.59-13.81-7.59"/>
	<circle cx="306.78" cy="154.85" r="1.73"/>
	<circle cx="273.44" cy="154.85" r="1.73"/>
	<path class="st2" d="M296.63,171.63c0,0-4.83,1.93-8.42,0.41"/>
	<path class="st2" d="M296.74,188.12l-18.7-8.35c0,0-0.86,7.62,4.17,10.85C291.06,196.3,296.74,188.12,296.74,188.12z"/>
	<path class="st2" d="M313.48,142.21c0,0-6.9-3.18-10.63-1.38"/>
	<path class="st2" d="M282.55,137.93c0,0-6.9-3.18-10.63-1.38"/>
	<path class="st2" d="M252.18,173c0,0,8.33,34.98,29.98,37.98c14.6,2.02,31.97-10.06,39.66-42.23c6.33-26.48-0.52-45.55-26.83-48.89
		c-26.32-3.33-42.31,10.49-44.31,19.49s-0.37,13.17-0.37,13.17s-4.13-2.68-8.96,2.15c-4.83,4.83,4,17.49,4,17.49l-1.29,30.83"/>
	<path d="M245.25,155.37c4.66,0.83,9.18-2.09,10.31-6.69c1.08-4.38,2.46-9.51,3.74-12.7c2.59-6.47,8.54-6.99,25.62-5.18
		s32.77,0.8,35.82,11.03c1.31,4.39-0.18,31.77-0.18,31.77s5.39-12.15,7.72-24.05s0.17-16.12,0.17-21.84c0-0.48,4.09-3.57,6.31-10.06
		c2.45-7.14,3.05-17.71,3.05-17.71s-12,7.58-29.6,2.92c-2.18-0.58-4.88-1.32-7.94-2.06c-15.2-3.65-39.3-7.02-52.87,12.15
		c-14.23,20.11-6.05,41.73-6.05,41.73L245.25,155.37z"/>
	<line class="st2" x1="368.15" y1="435.13" x2="358.3" y2="432.47"/>
	<polygon class="st3" points="527.57,376.58 345.26,384.56 325.03,340.39 477,339.32 	"/>
	<polygon class="st3" points="518.25,447.11 527.57,376.58 345.26,384.56 344.46,455.89 	"/>
	<polygon class="st3" points="325.03,340.39 321.57,415.7 344.46,455.89 345.26,384.56 	"/>
	<line class="st2" x1="407.83" y1="387.52" x2="404.59" y2="446.4"/>
	<line class="st2" x1="417.6" y1="387.35" x2="414.36" y2="446.23"/>
	<line class="st2" x1="427.37" y1="387.18" x2="424.13" y2="446.06"/>
	<line class="st2" x1="437.14" y1="387.01" x2="433.9" y2="445.89"/>
	<line class="st2" x1="446.91" y1="386.84" x2="443.67" y2="445.72"/>
	<line class="st2" x1="456.68" y1="386.67" x2="453.44" y2="445.56"/>
	<line class="st2" x1="466.45" y1="386.5" x2="463.21" y2="445.39"/>
	<line class="st2" x1="476.22" y1="386.33" x2="472.98" y2="445.22"/>
	<g>
		<polygon class="st3" points="527.06,455.46 354.03,442.27 339.91,521.12 542.4,537.69 		"/>
		<polygon class="st2" points="471.9,469.63 474.83,526.19 534.35,531.41 525.07,473.96 		"/>
		<polygon class="st2" points="469.32,526.2 347.97,515.87 354.54,473.85 467.91,483.01 		"/>
		<line class="st2" x1="472.6" y1="455.78" x2="521.19" y2="459.77"/>
		<line class="st2" x1="473.31" y1="459.54" x2="521.89" y2="463.53"/>
		<line class="st2" x1="473.54" y1="463.06" x2="522.13" y2="467.05"/>
		<polyline class="st2" points="542.4,537.69 541.3,544.99 339.64,529.23 339.91,521.12 		"/>
		<line class="st2" x1="376.53" y1="507.89" x2="447.87" y2="513.78"/>
		<line class="st2" x1="357.06" y1="497.35" x2="461.92" y2="505.91"/>
		<line class="st2" x1="357.26" y1="489.31" x2="462.12" y2="497.87"/>
		<line class="st2" x1="357.45" y1="480.97" x2="462.31" y2="489.53"/>
	</g>
	<path class="st2" d="M276.8,237.51c0,0-29.33-29.09-33.14-35.05s-6.2-11.21-6.2-11.21s-7.39,8.82-7.39,14.78
		s12.88,15.74,22.41,20.03C262.02,230.35,276.8,237.51,276.8,237.51z"/>
	<path class="st2" d="M279.18,237.98l10.97-9.78l-0.24-7.15c0,0,3.34,2.62,4.53,6.91C295.64,232.26,279.18,237.98,279.18,237.98z"/>
	<path class="st2" d="M230.6,201.84c-0.72,0.95-60.45,39.27-70.47,53.57s-14.81,85.52-21.32,120.27s-16.83,70.58-16.83,70.58"/>
	<path class="st2" d="M294.44,227.97c0,0,21.07,7.38,20.2,45.47c-0.87,38.09-25.84,189.72-25.84,189.72"/>
	<line class="st2" x1="289.7" y1="226.96" x2="290.2" y2="210.54"/>
	<path class="st2" d="M237.46,191.25c0,0,2.21-2.11,6.65-1.22"/>
	<path class="st2" d="M320.69,286.36c0,0,4.68,9.21,3.39,21.32"/>
	<path class="st3" d="M315.7,402.63c0,0,15.99-16.2,22.64-18.6s19.18-1.57,21.82-3.19c3.46-2.13,7.19-4.52,9.05-3.46
		c1.86,1.06,1.86,6.12-2.66,9.85c-4.52,3.73-11.18,5.32-11.18,5.32s2.93,3.19,9.05,3.46s19.16,1.6,24.75,4.26
		c5.59,2.66,5.59,4.79,5.06,7.19s-4.26,1.6-9.31,1.33c-5.06-0.27-19.69-0.27-19.69-0.27s-1.33,4.52,8.52,5.86
		c9.85,1.33,19.43,5.32,20.49,8.25s-2.13,4.52-2.13,4.52l-30.61-3.99c0,0,21.03,7.19,22.09,9.85s-2.93,5.86-5.32,5.59
		s-10.11-3.46-10.11-3.46s0,3.99-2.66,4.26s-10.11-2.93-17.3-4.52c-7.19-1.6-19.43-1.86-25.02-5.32s-9.85-2.93-9.85-2.93"/>
	<path class="st4" d="M315.55,395.21c0,1.26,2.1,11.73,0.42,20.53c-1.68,8.8-5.45,19.69-5.45,19.69s-128.64,18.86-139.95,9.64
		c-11.31-9.22-25.63-81.65-26.87-111.37c-1.91-45.76,11.83-74.72,16.44-77.66c4.61-2.93,40.6,9.7,52.33,46.99s6.52,83.26,6.52,83.26
		L315.55,395.21z"/>
	<path class="st2" d="M213.41,405.3c8.33-12.14,5.58-19.01,5.58-19.01s-1.06,4.02-14.15,11.16c-13.09,7.14-17.13,7.85-17.13,7.85"/>
	<line class="st2" x1="368.15" y1="435.13" x2="349.45" y2="427.62"/>
	<path class="st3" d="M382.52,259.74l129.34-0.27l-10.91,110.71c0,0-125.35,4.52-125.35,3.73S382.52,259.74,382.52,259.74z"/>
	<polygon class="st3" points="511.86,259.48 470.34,248.03 359.9,247.24 352.44,352.1 375.6,373.92 382.52,259.74 	"/>
	<polygon class="st3" points="389.7,266.66 505.21,265.87 496.43,353.43 383.58,355.02 	"/>
	<polygon class="st4" points="398.22,276.51 492.97,276.51 485.78,343.58 395.29,344.64 	"/>
	<line class="st2" x1="376.93" y1="360.08" x2="501.22" y2="357.68"/>
	<circle class="st2" cx="492.3" cy="364.74" r="2.79"/>
	<path class="st3" d="M357.07,259.67c0,0,6.94-1.47,11.78,0.42s25.88,0.84,30.08-0.63c4.21-1.47,3.58-6.52,3.58-6.52
		s9.26,5.68,16.83,7.15c7.57,1.47,9.05-0.21,9.05-0.21s4.63,0.84,6.1,0.21c1.47-0.63,2.73-1.89,2.73-1.89s3.37,0.84,4.42-0.63
		c1.05-1.47,1.26-4.84-3.37-6.31c-4.63-1.47-25.01-13.19-27.33-14.45c-2.31-1.26-12.43-5.96-15.59-6.17
		c-3.16-0.21-25.46,0.42-29.87,1.47c-4.42,1.05-22.3,11.36-22.3,11.36s-1.48,8.1,2.38,11.82
		C349.41,259.01,357.07,259.67,357.07,259.67z"/>
	<path class="st2" d="M428.39,259.88c0,0-10.78-7.21-18.78-11.43"/>
	<path class="st2" d="M402.51,252.94c0,0-1.78-2.6-11.23-2.6s-12.95,0.15-12.95,0.15"/>
	<line class="st2" x1="437.22" y1="258.2" x2="422.21" y2="248.86"/>
</g>
</svg>
